<?xml version="1.0" standalone="no"?>
<!DOCTYPE svg PUBLIC "-//W3C//DTD SVG 20010904//EN"
 "http://www.w3.org/TR/2001/REC-SVG-20010904/DTD/svg10.dtd">
<svg version="1.0" xmlns="http://www.w3.org/2000/svg"
 width="624.000000pt" height="624.000000pt" viewBox="0 0 624.000000 624.000000"
 preserveAspectRatio="xMidYMid meet">
<metadata>
Created by potrace 1.14, written by Peter Selinger 2001-2017
</metadata>
<g transform="translate(0.000000,624.000000) scale(0.100000,-0.100000)"
fill="#000000" stroke="none">
<path d="M2958 6125 c-2 -2 -28 -6 -58 -9 -146 -17 -268 -58 -344 -116 -38
-29 -108 -105 -151 -165 -57 -80 -93 -160 -124 -280 -36 -138 -34 -551 5 -905
29 -264 33 -350 20 -434 -9 -65 -43 -163 -67 -197 -10 -15 -19 -30 -19 -34 0
-18 -218 -299 -303 -390 -10 -11 -46 -56 -78 -100 -89 -118 -141 -234 -194
-430 -54 -203 -81 -276 -153 -415 -30 -58 -64 -123 -75 -145 -12 -22 -24 -42
-27 -45 -3 -3 -23 -37 -43 -77 -86 -165 -114 -287 -93 -402 5 -26 4 -46 -1
-50 -6 -3 -25 -45 -43 -93 -45 -122 -52 -126 -238 -127 -159 -2 -179 -8 -234
-64 -49 -51 -71 -110 -72 -197 -1 -69 8 -175 20 -232 12 -61 19 -129 18 -184
-1 -68 -27 -135 -97 -243 -38 -60 -41 -72 -42 -133 0 -57 3 -70 24 -92 23 -24
111 -73 150 -81 9 -2 41 -11 71 -19 57 -16 90 -23 150 -32 19 -2 49 -8 65 -11
17 -3 39 -7 50 -9 11 -2 31 -6 45 -9 21 -6 92 -22 125 -28 6 -2 16 -6 23 -10
6 -5 12 -6 12 -3 0 3 12 1 28 -5 15 -6 37 -13 49 -15 13 -2 125 -38 250 -79
424 -140 491 -154 627 -128 86 16 157 52 216 110 80 80 219 128 435 150 147
16 508 5 735 -22 19 -2 62 -7 95 -10 33 -3 69 -7 80 -10 11 -2 27 -4 36 -4 10
-1 31 -23 49 -51 60 -94 197 -180 311 -197 73 -10 219 -9 244 1 11 5 28 10 37
12 31 7 158 87 204 129 11 11 34 31 50 44 48 40 159 136 164 141 8 9 176 144
201 162 13 9 46 33 74 52 27 20 56 36 62 36 7 0 13 3 13 8 0 4 15 13 33 21 32
15 216 101 273 129 47 23 108 82 127 124 25 53 22 123 -8 173 -26 45 -76 81
-183 134 -135 66 -230 165 -237 249 -9 101 -36 214 -62 267 -18 35 -51 64 -75
65 -15 0 -15 5 -1 57 34 132 42 208 39 388 -2 99 -6 189 -9 200 -4 17 -16 94
-18 117 -1 4 -10 40 -20 80 -11 40 -21 80 -24 88 -25 100 -185 452 -238 525
-4 5 -32 48 -63 95 -31 47 -60 87 -63 90 -3 3 -26 30 -50 60 -25 30 -50 60
-56 65 -10 10 -64 86 -222 317 -133 194 -217 378 -238 518 -14 94 -22 146 -30
190 -6 37 -15 116 -20 190 -6 83 -13 161 -20 225 -3 28 -7 75 -10 105 -3 30
-8 64 -10 75 -2 11 -7 36 -10 55 -13 91 -12 89 -60 255 -70 242 -278 454 -522
531 -55 17 -69 20 -173 39 -62 11 -322 19 -332 10z m493 -913 c97 -39 141
-140 140 -317 -1 -49 -3 -102 -6 -117 -3 -16 -7 -40 -10 -55 -3 -16 -8 -48
-11 -73 -3 -25 -7 -46 -9 -48 -2 -2 -17 4 -34 12 -16 9 -41 16 -54 16 -14 0
-30 6 -36 13 -8 11 -3 17 24 30 70 33 96 147 60 259 -42 129 -170 181 -256
105 -49 -44 -60 -73 -64 -170 -2 -50 1 -100 6 -109 11 -21 -10 -25 -29 -6 -7
7 -12 8 -12 2 -1 -25 -43 86 -54 144 -29 151 5 260 93 301 80 38 179 43 252
13z m-799 -38 c33 -17 78 -64 78 -81 0 -7 4 -13 9 -13 8 0 16 -20 28 -70 2 -8
4 -56 5 -106 1 -70 -3 -97 -16 -115 -9 -13 -16 -21 -17 -19 -1 3 -3 23 -5 45
-15 184 -87 269 -191 226 -15 -6 -41 -32 -57 -57 -24 -39 -29 -58 -31 -119 -3
-90 14 -140 59 -182 l36 -33 -24 -15 c-30 -20 -49 -12 -81 36 -46 70 -58 114
-57 205 0 74 9 129 22 155 6 10 8 19 5 19 -3 0 4 19 16 43 47 92 136 125 221
81z m-31 -177 c42 -32 69 -148 33 -143 -9 1 -22 19 -29 40 -15 43 -15 43 -15
55 0 6 -8 8 -18 6 -31 -6 -46 9 -33 34 13 23 38 27 62 8z m821 -14 c16 -18 28
-44 32 -71 3 -24 8 -47 11 -53 7 -10 3 -11 -19 -3 -8 3 -25 26 -36 50 -12 24
-28 44 -35 44 -7 0 -20 11 -29 24 -14 23 -14 25 2 29 36 10 49 6 74 -20z
m-375 -239 c51 -13 129 -40 175 -60 46 -20 90 -37 99 -39 25 -5 148 -54 197
-78 24 -11 61 -38 82 -58 35 -34 38 -41 31 -71 -11 -46 -24 -68 -63 -104 -29
-28 -313 -224 -323 -224 -2 0 -30 -16 -63 -34 -55 -33 -148 -74 -182 -81 -8
-2 -15 -4 -15 -5 0 -3 -40 -9 -83 -14 -57 -5 -158 16 -202 43 -19 11 -42 24
-50 28 -13 6 -179 171 -206 205 -6 7 -13 24 -17 37 -6 23 -5 23 16 4 12 -10
24 -20 27 -23 17 -18 158 -82 211 -96 111 -29 202 -23 360 25 95 29 389 198
389 223 0 7 -6 20 -13 29 -11 15 -19 12 -72 -27 -33 -24 -89 -60 -125 -81 -36
-20 -67 -39 -70 -43 -3 -4 -50 -25 -106 -48 -189 -75 -311 -75 -459 0 -67 34
-155 100 -155 116 0 6 -4 12 -8 12 -5 0 -14 12 -21 26 -23 51 36 135 150 216
35 25 91 59 124 74 33 16 62 31 65 34 4 5 99 34 145 45 18 4 68 -6 162 -31z
m675 -869 c28 -55 64 -123 78 -150 17 -32 30 -75 34 -115 4 -36 12 -85 18
-110 15 -64 86 -200 170 -327 106 -160 127 -212 173 -418 28 -129 30 -159 30
-460 -1 -313 -4 -395 -18 -395 -5 0 -18 5 -30 12 -28 15 -43 19 -90 19 -86 1
-159 -91 -184 -229 -9 -48 -8 -213 2 -323 8 -93 7 -95 -45 -160 -101 -127
-254 -257 -390 -331 -84 -46 -276 -116 -301 -110 -4 1 -21 -3 -39 -8 -46 -13
-159 -23 -265 -23 -82 0 -124 4 -225 20 -49 7 -138 42 -184 71 -44 27 -109 92
-101 100 3 3 0 11 -6 18 -25 31 -47 85 -36 89 7 2 28 8 47 14 42 13 121 79
150 126 31 50 26 93 -20 163 -56 88 -315 342 -347 342 -7 0 -13 5 -13 10 0 6
-4 10 -10 10 -19 0 -203 130 -309 218 -114 96 -151 141 -186 228 -29 72 -37
179 -22 269 4 22 10 56 13 75 3 19 10 40 15 46 5 7 9 16 8 20 -1 5 0 16 4 24
3 8 14 40 25 70 11 30 34 85 51 123 17 37 31 70 31 73 0 13 106 223 137 272
35 54 47 61 76 39 16 -11 12 -21 -47 -109 -55 -84 -81 -136 -161 -323 -14 -32
-49 -138 -47 -142 1 -2 -5 -21 -13 -43 -8 -22 -12 -40 -10 -40 2 0 -1 -15 -6
-32 -8 -27 -21 -131 -22 -173 0 -38 17 -114 35 -149 19 -39 75 -106 88 -106 3
0 6 55 6 123 0 109 7 193 19 229 2 7 6 29 9 48 3 19 12 54 20 78 8 23 13 42 9
42 -3 0 0 6 6 13 6 8 12 22 14 33 2 10 8 28 12 39 50 127 84 204 121 276 24
47 44 90 44 96 0 6 3 13 8 15 7 3 72 129 72 140 0 4 13 29 28 55 16 26 34 77
41 113 14 73 36 149 57 197 8 17 14 34 14 37 0 9 63 138 115 236 48 90 95 217
95 256 0 13 3 24 6 24 8 0 103 -78 129 -106 58 -62 132 -83 273 -79 90 3 147
9 147 15 0 1 8 3 17 5 34 6 211 96 276 139 37 24 105 74 151 110 l85 66 58
-137 c32 -76 81 -183 110 -238z m560 -592 c143 -55 276 -240 313 -433 16 -85
23 -288 11 -355 -2 -16 -8 -55 -11 -85 -4 -30 -8 -57 -10 -60 -2 -3 -6 -24
-10 -48 -3 -23 -14 -67 -24 -97 -10 -30 -15 -58 -10 -60 4 -3 41 -8 81 -11 40
-2 84 -7 98 -10 14 -3 36 -8 50 -10 67 -12 145 -52 195 -99 66 -63 91 -110 86
-162 -2 -22 -29 -14 -37 10 -4 12 -9 24 -13 27 -3 3 -18 23 -34 46 -37 54 -68
76 -157 107 -192 66 -353 54 -440 -34 -14 -14 -46 -49 -72 -78 -26 -29 -51
-50 -57 -47 -29 18 77 161 158 213 52 34 61 44 77 93 10 30 19 58 20 63 1 4 2
8 4 10 1 1 3 10 5 21 2 10 9 39 15 65 31 131 42 311 26 406 -3 17 -8 46 -11
65 -13 80 -58 199 -96 255 -48 71 -103 121 -179 162 -42 22 -47 29 -39 45 12
22 9 22 61 1z m-2706 -1358 c76 -44 179 -161 240 -270 58 -104 138 -241 143
-245 4 -3 18 -21 31 -40 14 -19 28 -39 32 -45 5 -5 22 -28 38 -50 16 -22 33
-45 37 -50 5 -6 29 -38 56 -72 26 -34 47 -66 47 -71 0 -6 4 -12 9 -14 10 -4
101 -145 101 -157 0 -5 3 -11 8 -13 12 -5 79 -150 102 -223 30 -94 39 -259 17
-302 -67 -129 -275 -227 -407 -193 -19 5 -46 11 -60 14 -14 2 -104 32 -200 66
-282 98 -463 158 -510 166 -14 3 -31 7 -39 9 -16 6 -156 36 -186 40 -224 30
-372 78 -417 135 -15 19 -19 34 -15 65 5 34 49 132 91 200 43 70 65 216 47
306 -7 31 -14 69 -17 85 -3 16 -9 45 -13 64 -20 92 3 212 52 273 23 28 94 43
217 46 65 1 139 9 171 18 61 16 77 35 86 103 14 94 84 172 176 195 48 12 93 1
163 -40z m2595 -76 c26 -18 68 -79 55 -79 -8 0 29 -101 54 -150 13 -25 35 -55
49 -68 37 -32 81 -64 81 -58 0 3 17 -2 37 -10 22 -9 70 -16 117 -17 67 -1 91
4 137 25 69 32 77 38 217 176 108 106 147 133 171 117 6 -3 18 -30 26 -59 15
-53 20 -72 31 -131 15 -85 28 -125 61 -187 41 -79 100 -133 189 -176 166 -78
220 -157 184 -266 -12 -39 -65 -85 -120 -106 -98 -37 -244 -109 -350 -171 -45
-27 -179 -127 -205 -154 -11 -11 -47 -43 -80 -70 -76 -63 -106 -89 -164 -142
-25 -24 -60 -50 -78 -58 -18 -9 -38 -21 -45 -28 -85 -83 -294 -110 -433 -57
-39 15 -102 58 -138 93 -36 36 -79 105 -73 116 3 4 8 27 11 49 2 23 9 62 15
88 6 25 12 91 15 145 2 54 6 102 8 106 3 5 8 26 11 48 3 22 9 53 12 70 4 16 8
205 9 420 3 405 7 447 49 506 34 49 100 62 147 28z"/>
<path d="M2793 4718 c-31 -10 -35 -16 -37 -62 -2 -40 40 -26 82 28 34 44 19
54 -45 34z"/>
<path d="M2934 4718 c3 -21 39 -77 53 -82 21 -8 43 4 43 24 0 10 -14 30 -31
44 -32 27 -69 35 -65 14z"/>
</g>
</svg>
